<?xml version="1.0" encoding="UTF-8"?>
<svg width="16px" height="15px" viewBox="0 0 16 15" version="1.1" xmlns="http://www.w3.org/2000/svg" xmlns:xlink="http://www.w3.org/1999/xlink">
    <!-- Generator: Sketch 62 (91390) - https://sketch.com -->
    <title>star</title>
    <desc>Created with Sketch.</desc>
    <g id="Page-1" stroke="none" stroke-width="1" fill="none" fill-rule="evenodd">
        <g id="ImplementThisPage" transform="translate(-947.000000, -1068.000000)" fill="#909090" fill-rule="nonzero">
            <g id="TrendingRepoList" transform="translate(330.000000, 1062.000000)">
                <g id="TrendingRepo" transform="translate(1.000000, 0.000000)">
                    <g id="Group-2" transform="translate(616.000000, 3.000000)">
                        <g id="star" transform="translate(0.000000, 3.000000)">
                            <path d="M15.180548,5.02416415 L10.81121,4.40021787 L8.85831623,0.521791261 C8.50841031,-0.169529495 7.49458034,-0.17831747 7.14168377,0.521791261 L5.18879004,4.40021787 L0.819451999,5.02416415 C0.0359019886,5.13547851 -0.278116146,6.08165056 0.290107145,6.62357573 L3.45122303,9.64078072 L2.7035608,13.9029489 C2.5689816,14.6733615 3.39739135,15.2504385 4.09122189,14.8901315 L8,12.8776851 L11.9087781,14.8901315 C12.6026087,15.2475092 13.4310184,14.6733615 13.2964392,13.9029489 L12.548777,9.64078072 L15.7098929,6.62357573 C16.2781161,6.08165056 15.964098,5.13547851 15.180548,5.02416415 L15.180548,5.02416415 Z M11.0085928,9.14865408 L11.7173766,13.2028402 L8,11.2899908 L4.28262342,13.2028402 L4.99140721,9.14865408 L1.98281442,6.27791535 L6.13981639,5.68619165 L8,1.99524185 L9.86018361,5.68619165 L14.0171856,6.27791535 L11.0085928,9.14865408 Z" id="Shape"></path>
                        </g>
                    </g>
                </g>
            </g>
        </g>
    </g>
</svg>